<?xml version="1.0" encoding="UTF-8" standalone="no"?>
<!-- Created with Inkscape (http://www.inkscape.org/) -->

<svg
   version="1.1"
   id="svg1"
   width="501.33334"
   height="433.33334"
   viewBox="0 0 501.33334 433.33334"
   sodipodi:docname="erplogo2.svg"
   inkscape:version="1.3 (0e150ed6c4, 2023-07-21)"
   xmlns:inkscape="http://www.inkscape.org/namespaces/inkscape"
   xmlns:sodipodi="http://sodipodi.sourceforge.net/DTD/sodipodi-0.dtd"
   xmlns="http://www.w3.org/2000/svg"
   xmlns:svg="http://www.w3.org/2000/svg">
  <defs
     id="defs1" />
  <sodipodi:namedview
     id="namedview1"
     pagecolor="#ffffff"
     bordercolor="#000000"
     borderopacity="0.25"
     inkscape:showpageshadow="2"
     inkscape:pageopacity="0.0"
     inkscape:pagecheckerboard="0"
     inkscape:deskcolor="#d1d1d1"
     inkscape:zoom="1.8946153"
     inkscape:cx="250.44662"
     inkscape:cy="216.66667"
     inkscape:window-width="1920"
     inkscape:window-height="1017"
     inkscape:window-x="-8"
     inkscape:window-y="-8"
     inkscape:window-maximized="1"
     inkscape:current-layer="g1" />
  <g
     inkscape:groupmode="layer"
     inkscape:label="Image"
     id="g1">
    <path
       style="fill:#000000"
       d="m 229.83273,406.14122 c -6.6,-3.05727 -12.75,-6.03137 -13.66667,-6.6091 l -1.66667,-1.05043 v -27.92131 c 0,-15.35672 0.23771,-27.92131 0.52823,-27.92131 0.29053,0 6.89053,2.97091 14.66667,6.60202 l 14.13844,6.60202 v 28.06465 c 0,15.43555 -0.45,28.00333 -1,27.9284 -0.55,-0.0749 -6.4,-2.63766 -13,-5.69494 z m 19.33333,-21.89445 v -27.94785 l 1.66667,-1.24665 c 1.8976,-1.4194 25.71739,-12.4132 26.89513,-12.4132 0.42434,0 0.77154,12.80424 0.77154,28.45388 v 28.45388 l -13.59781,5.87945 c -7.47879,3.2337 -14.07879,6.07946 -14.66666,6.3239 -0.58788,0.24445 -1.06887,-12.13209 -1.06887,-27.50341 z m 40.8918,6.83965 c -1.42763,-1.42763 -1.02804,-10.87244 0.49994,-11.81678 2.07699,-1.28365 5.27493,1.94528 5.27493,5.32604 0,3.16296 -4.28569,7.97992 -5.77487,6.49074 z M 138.23751,349.75018 c -0.14403,-18.94445 -0.24255,-55.98987 -0.21891,-82.32316 l 0.043,-47.87872 37.21892,-17.53835 37.21887,-17.53834 0.41025,-4.85635 0.41025,-4.85635 -25.74358,12.03464 c -43.36157,20.2707 -51.29826,23.84551 -52.94115,23.84551 -1.41151,0 -77.415409,-34.21319 -78.628739,-35.39476 -0.69931,-0.681 22.48677,-11.2719 24.67695,-11.2719 0.99608,0 10.96217,4.25354 22.146869,9.45231 11.1847,5.19876 23.07235,10.6316 26.417,12.07297 l 6.08118,2.62067 38.91882,-18.36926 38.91882,-18.36927 v -3.70371 c 0,-2.03704 -0.51181,-3.70371 -1.13736,-3.70371 -0.62555,0 -17.86581,7.9 -38.31169,17.55555 -20.44589,9.65556 -37.78407,17.54988 -38.52931,17.54294 -1.12427,-0.0105 -74.998759,-33.38478 -80.389389,-36.31755 l -1.70109,-0.92547 37.60716,-17.92774 37.607159,-17.92773 -44.572739,-0.66667 -44.57274,-0.66667 v -2.66667 -2.666663 l 17.57163,-0.666667 17.57163,-0.666666 12.17691,-10.000001 c 6.69731,-5.5 12.69945,-10.186459 13.3381,-10.414354 0.638649,-0.227894 1.808339,0.794877 2.599319,2.272825 l 1.43813,2.687178 -9.246689,7.727176 -9.24669,7.727176 10.6288,0.388279 c 5.845849,0.213554 15.209729,0.213554 20.808629,0 L 126.98565,97.972394 114.40919,83.268243 C 84.651121,48.475693 80.990271,43.87054 81.402111,41.747041 c 0.88595,-4.56812 3.71796,-2.949728 12.5345,7.163016 l 9.063209,10.395669 23.41645,0.666667 23.41646,0.666666 v 2.666667 2.666667 l -19.66667,0.368977 c -10.81667,0.202938 -19.66667,0.689946 -19.66667,1.08224 0,0.392295 6.93254,8.926255 15.40563,18.964357 l 15.40563,18.251093 9.59437,4.93402 c 5.27691,2.7137 10.00452,4.9637 10.50581,5 0.50129,0.0363 1.10129,-1.39557 1.33333,-3.18191 l 0.4219,-3.24789 18,8.28011 18,8.28011 0.40295,4.78548 0.40296,4.78548 3.26371,1.48705 3.26371,1.48705 v -5.97142 c 0,-3.28427 0.55564,-5.97141 1.23475,-5.97141 0.67911,0 9.07911,3.69225 18.66667,8.205 l 17.43192,8.20499 v 29.79501 29.795 h 3.33333 3.33334 v -30.09529 -30.09529 l 16.64938,-7.90471 c 9.15716,-4.34759 16.95716,-7.90471 17.33333,-7.90471 0.37618,0 0.68395,2.68714 0.68395,5.97141 v 5.97142 l 3.33334,-1.51877 3.33333,-1.51877 v -4.87823 -4.87824 l 17.66667,-8.25728 c 9.71666,-4.5415 18.07865,-8.24998 18.58219,-8.24107 0.50353,0.009 1.10353,1.84057 1.33333,4.07037 l 0.41781,4.05417 11.80451,-5.74596 11.80451,-5.74597 16.34641,-18.641541 16.3464,-18.641543 -20.15091,-0.666666 -20.15092,-0.666667 v -2.666667 -2.666667 l 23.50387,-0.363436 23.50386,-0.363436 9.65637,-10.694264 c 9.55506,-10.58206 12.66924,-12.285265 12.66924,-6.929047 v 2.760928 l -23.65581,26.794628 -23.6558,26.794628 21.6558,-0.01166 21.65581,-0.01166 -9.33334,-8.541191 -9.33333,-8.54119 2.1595,-2.225705 2.15951,-2.225705 5.17383,4.415034 c 2.8456,2.428268 8.35335,7.261408 12.23943,10.74031 l 7.06561,6.325278 17.60106,0.371576 17.60106,0.371577 v 2.666666 2.66667 l -46.05589,0.66667 -46.0559,0.66667 37.76162,17.89427 c 20.76889,9.84185 37.29405,18.31053 36.72256,18.81928 -0.57148,0.50875 -10.93906,5.45975 -23.03906,11.00222 -12.1,5.54247 -29.58514,13.66293 -38.85588,18.04546 l -16.85587,7.96823 -38.47746,-17.81717 c -21.1626,-9.79945 -38.92746,-17.83858 -39.47746,-17.86473 -0.55,-0.0262 -1,1.65575 -1,3.73759 v 3.78515 l 39.46852,18.34661 39.46852,18.34662 25.80878,-12.13177 c 14.19483,-6.67247 26.42312,-12.13176 27.17397,-12.13176 1.96284,0 24.6088,10.58869 23.9578,11.20208 -1.24205,1.1703 -75.7651,35.46458 -77.06617,35.46458 -0.78001,0 -18.35979,-7.8 -39.0662,-17.33333 -20.7064,-9.53333 -38.15789,-17.33333 -38.78109,-17.33333 -0.62319,0 -0.94507,1.93859 -0.71527,4.30797 l 0.41781,4.30797 34,15.59194 c 18.7,8.57557 35.65462,16.51173 37.67694,17.63591 l 3.67693,2.04397 -0.3436,81.72279 -0.3436,81.72279 -2.37794,-0.40203 c -1.30787,-0.22111 -16.30787,-6.82795 -33.33334,-14.68186 l -30.95539,-14.27984 -0.346,-64.08575 -0.346,-64.08576 -21.4036,-9.67654 c -11.77198,-5.3221 -22.22733,-9.36046 -23.23411,-8.97412 -1.00677,0.38634 -10.56945,4.72337 -21.2504,9.63786 l -19.41989,8.93543 v 11.8063 c 0,6.49347 -0.23395,11.8063 -0.51989,11.8063 -0.28594,0 -12.43594,-5.46294 -27,-12.13987 -14.56406,-6.67693 -27.83011,-12.66208 -29.48011,-13.30033 l -3,-1.16046 v 3.88217 3.88218 l 12.33333,5.80747 c 6.78333,3.1941 20.27882,9.38228 29.98997,13.75149 l 17.65663,7.94402 0.01,11.66667 c 0.006,6.41666 -0.45106,11.66666 -1.01462,11.66666 -0.56356,0 -13.91356,-5.94269 -29.66666,-13.20599 l -28.64199,-13.20599 -0.44609,1.95054 c -0.24536,1.0728 -0.15717,2.7035 0.19598,3.62378 0.55332,1.44193 34.08004,17.83289 53.25011,26.03358 l 6.33334,2.70932 v 21.97152 21.97153 l -9.66667,-4.43132 c -5.31667,-2.43722 -18.32646,-8.40309 -28.91065,-13.25747 -10.58418,-4.85439 -19.73418,-8.82616 -20.33333,-8.82616 -0.59914,0 -1.08935,1.39809 -1.08935,3.10688 v 3.10687 l 30,13.78625 30,13.78624 v 6.8847 6.8847 l -31.50642,14.55551 c -17.32853,8.00553 -32.02853,14.75552 -32.66667,14.99996 -0.63813,0.24444 -1.27809,-15.05556 -1.42213,-34 z m 8.34954,-209.8247 c 1.46341,-0.78319 2.57901,-2.78155 2.57901,-4.61975 0,-4.04073 -3.48314,-6 -10.66667,-6 -9.62695,0 -14.13216,4.5345 -9.30309,9.36357 l 2.63643,2.63643 h 6.08765 c 3.34821,0 7.24821,-0.62111 8.66667,-1.38025 z m 218.60957,-1.31697 2.69723,-2.69723 -1.37106,-2.56185 c -1.90361,-3.55692 -3.28087,-4.2006 -9.16152,-4.28176 -7.07405,-0.0976 -10.57478,1.23302 -11.58051,4.40181 l -0.85505,2.69402 2.32683,2.57111 2.32682,2.57112 h 6.46002 6.46002 z m 54.96945,214.47706 -13.66667,-6.38377 v -16.11997 -16.11998 l 13.66667,-6.39561 13.66666,-6.3956 0.377,14.48421 c 0.20735,7.96632 0.20735,20.97103 0,28.89935 l -0.377,14.41514 z M 59.332721,354.4724 c -0.45833,-2.29167 -0.83333,-14.95671 -0.83333,-28.14454 v -23.97788 l 3.05264,0.76616 c 1.67895,0.42139 8.29712,3.22381 14.70704,6.2276 l 11.6544,5.46144 -0.37371,15.96905 -0.3737,15.96905 -12.66667,5.89398 c -6.96667,3.24169 -13.04167,5.91824 -13.5,5.94789 -0.45833,0.0297 -1.20833,-1.82108 -1.66667,-4.11275 z m 35.16667,-76.48211 c 0,-41.44317 0.45,-75.36151 1,-75.37408 0.55,-0.0126 7.749999,3.0794 15.999999,6.87106 l 15,6.89392 v 61.14011 61.14011 l -11.66666,5.46088 c -6.41667,3.00348 -13.61667,6.30651 -15.999999,7.34006 l -4.33334,1.87917 z m 287.666669,68.36327 -14.33333,-6.77315 v -61.67833 -61.67833 l 9,-4.27969 c 4.95,-2.35383 12.15,-5.70282 16,-7.4422 l 7,-3.1625 v 75.98319 75.98318 l -1.66667,-0.0895 c -0.91666,-0.0492 -8.11666,-3.13743 -16,-6.86266 z m -153.99674,-4.7831 -13.6634,-6.26473 -0.003,-21.66666 c -0.002,-11.91667 0.20824,-21.66667 0.46674,-21.66667 0.2585,0 6.8585,3.01344 14.66667,6.69654 l 14.19666,6.69655 v 21.30345 c 0,11.71691 -0.45,21.27259 -1,21.23486 -0.55,-0.0377 -7.14853,-2.88774 -14.66341,-6.33334 z m 20.99674,-14.79041 v -21.41456 l 14.19667,-6.69655 c 7.80816,-3.6831 14.40816,-6.69654 14.66666,-6.69654 0.2585,0 0.45925,9.75 0.44611,21.66667 l -0.0239,21.66666 -13.48374,6 c -7.41605,3.3 -14.0053,6.2 -14.64277,6.44445 -0.63747,0.24444 -1.15904,-9.19211 -1.15904,-20.97013 z m -205.666669,3.45979 -3.66667,-1.44888 0.0849,-54.74262 0.0849,-54.74261 4.4969,-11.33333 4.4969,-11.33334 0.0849,67.66667 c 0.0467,37.21667 -0.36512,67.60284 -0.91512,67.52483 -0.55,-0.078 -2.65,-0.79384 -4.66666,-1.59072 z M 443.83273,264.63907 c 0,-37.03334 0.23703,-67.33334 0.52674,-67.33334 0.2897,0 2.6897,5.40414 5.33333,12.0092 l 4.8066,12.00921 v 53.28989 53.28989 l -3.93379,2.03424 c -2.16358,1.11883 -4.56358,2.03424 -5.33333,2.03424 h -1.39955 z M 72.362451,300.66928 c -6.67532,-3.16258 -12.52532,-6.76223 -13,-7.99923 -0.47468,-1.23699 -0.86306,-11.84044 -0.86306,-23.56322 V 247.7927 l 3,0.93269 c 1.65,0.51298 8.25,3.55944 14.66667,6.7699 l 11.66666,5.8372 v 22.65329 22.65329 l -1.66666,-0.10983 c -0.91667,-0.0604 -7.12829,-2.69739 -13.80361,-5.85996 z M 406.4994,283.4976 v -23.14146 l 13.34055,-6.19187 c 7.3373,-3.40553 13.65114,-6.19187 14.03076,-6.19187 0.37962,0 0.52638,10.52754 0.32612,23.39454 l -0.3641,23.39454 -13.097,5.93879 c -7.20334,3.26634 -13.35334,5.9388 -13.66666,5.9388 -0.31332,0 -0.56967,-10.41366 -0.56967,-23.14147 z m -178.99791,7.3485 -12.99791,-6.20703 -0.002,-20.96634 -0.002,-20.96634 10.33334,4.7756 c 5.68333,2.62657 12.28333,5.61948 14.66667,6.65089 l 4.33333,1.87531 v 20.64877 20.64877 l -1.66667,-0.1263 c -0.91666,-0.0695 -7.51572,-2.91946 -14.66457,-6.33333 z m 21.66457,-13.90306 v -20.3627 l 14.01603,-6.97064 c 7.70882,-3.83385 14.30882,-6.97063 14.66667,-6.97063 0.35785,0 0.65064,9.50192 0.65064,21.11539 v 21.1154 l -13.66667,6.23337 c -7.51667,3.42836 -14.11667,6.22643 -14.66667,6.21794 -0.55,-0.008 -1,-9.17865 -1,-20.37813 z m -177.152369,-30.45839 -13.81903,-6.59179 0.4857,-24.6236 c 0.26713,-13.54298 0.7857,-24.62963 1.15236,-24.637 0.36667,-0.007 6.81643,2.84115 14.3328,6.33004 l 13.66613,6.34343 5.4e-4,25 c 2.9e-4,13.75 -0.44947,24.94841 -0.99947,24.88535 -0.55,-0.0631 -7.21856,-3.08095 -14.81903,-6.70643 z m 334.790649,-18.85473 0.36173,-25.45059 13.66666,-6.36802 13.66667,-6.36803 -0.0433,25.59789 -0.0433,25.5979 -13.98506,6.22072 -13.98506,6.22072 z M 230.94206,238.1928 c -8.18986,-3.78789 -15.23617,-7.23338 -15.65847,-7.65665 -0.42229,-0.42327 6.29345,-4.06885 14.92388,-8.1013 l 15.69168,-7.33172 16.32984,7.33824 c 8.98142,4.03604 15.86648,7.75178 15.30013,8.2572 -1.03738,0.92578 -30.90692,14.70453 -31.42057,14.49423 -0.1517,-0.0621 -6.97662,-3.21211 -15.16649,-7 z M 212.49939,118.53493 c -17.6,-8.1129 -36.11629,-16.61835 -41.14731,-18.901015 l -9.14731,-4.150292 11.14731,-5.688651 c 6.13102,-3.128758 11.95972,-5.718785 12.95267,-5.755615 0.99294,-0.03683 14.63939,5.933036 30.32544,13.26637 15.68605,7.333333 28.95306,13.333333 29.48225,13.333333 0.52919,0 13.66176,-6 29.18348,-13.333333 15.52172,-7.333334 28.80925,-13.333334 29.52783,-13.333334 0.71858,0 6.63201,2.495614 13.14096,5.545809 l 11.83445,5.545808 -11.98322,5.59962 c -58.943,27.54338 -70.12991,32.64082 -71.61475,32.63206 -0.93599,-0.006 -16.1018,-6.64787 -33.7018,-14.76076 z m -9.66666,-36.294453 c -23.65,-10.986272 -42.99707,-20.340976 -42.99348,-20.788229 0.004,-0.447254 19.35359,-10.012639 43,-21.256412 l 42.99348,-20.443223 2.89414,1.109889 c 10.5349,4.040084 84.0651,39.955829 83.33883,40.706767 -0.84274,0.871376 -69.24342,33.283623 -80.89964,38.334985 l -5.33333,2.311266 z"
       id="path1" />
  </g>
</svg>
