<?xml version="1.0" encoding="UTF-8" standalone="no"?>
<!-- Created with Inkscape (http://www.inkscape.org/) -->

<svg
   version="1.1"
   id="svg1"
   width="628"
   height="628"
   viewBox="0 0 628 628"
   xmlns="http://www.w3.org/2000/svg"
   xmlns:svg="http://www.w3.org/2000/svg">
  <defs
     id="defs1" />
  <g
     id="g1">
    <path
       style="fill:#000000"
       d="m 147.95615,293.66144 c -4.125,-1.9347 -11.325,-4.45499 -16,-5.60065 -19.18606,-4.70173 -24.2439,-14.99427 -9.83639,-20.01676 3.97662,-1.38626 4.3086,-0.8 4.5171,7.97692 l 0.18072,7.60694 3.31888,1.71626 c 4.88026,2.52368 4.89688,2.45666 4.77699,-19.26328 -0.0607,-11.00558 0.092,-20.21259 0.33943,-20.46002 0.24743,-0.24743 5.23189,1.78876 11.07657,4.52487 l 10.6267,4.97475 v 21.06522 c 0,11.58587 -0.3375,21.04906 -0.75,21.0293 -0.4125,-0.0198 -4.125,-1.61885 -8.25,-3.55355 z m 13.0004,-17.66053 4.1e-4,-21.25 10.24959,-4.75758 c 5.63728,-2.61666 10.57815,-4.75416 10.97971,-4.75 0.40156,0.004 0.85156,9.40783 1,20.89703 l 0.26989,20.88945 3.71491,-1.48241 3.71491,-1.48241 0.28509,-9.65704 0.28509,-9.65704 3.5,0.28505 c 5.1164,0.41668 11.92717,4.04685 14.00603,7.46526 l 1.81059,2.97728 -0.93895,2.69349 -0.93896,2.69349 -5.21935,3.08466 c -5.04283,2.98034 -14.941,5.80024 -23.21936,6.61499 -2.2,0.21653 -7.30962,1.80941 -11.35471,3.53973 -4.04509,1.73033 -7.53259,3.14605 -7.75,3.14605 -0.21741,0 -0.39511,-9.5625 -0.39489,-21.25 z m -83.355322,-1.94344 c -0.33978,-1.26861 -0.62392,-28.98784 -0.63143,-61.5983 l -0.0137,-59.29174 7.75,-3.62587 c 4.2625,-1.99422 16.975002,-7.99458 28.250002,-13.33413 l 20.5,-9.70827 0.31452,-3.69384 0.31452,-3.69384 -1.81452,0.96855 c -0.99799,0.5327 -13.96406,6.67291 -28.8135,13.64492 l -26.998972,12.67637 -2.50103,-0.51184 c -4.49291,-0.91948 -58.101607,-25.9383 -57.290537,-26.73711 0.43424,-0.42767 4.63083,-2.54062 9.32577,-4.69545 l 8.53625,-3.91787 20.430647,9.40804 20.43065,9.40805 26.033102,-12.24048 c 14.31821,-6.73226 27.3831,-12.97859 29.0331,-13.88071 l 3,-1.64024 0.31642,-2.671395 c 0.44364,-3.74544 2.94465,-4.67857 -33.965912,12.672665 l -24.64949,11.58745 -24.85051,-11.46421 C 36.638881,105.4129 22.836961,99.003705 19.635731,97.475565 l -5.82041,-2.77845 28.16255,-13.4731 28.162547,-13.4731 -33.342127,-0.5 -33.3421401,-0.5 v -2 -2 l 12.8803701,-0.28085 12.88038,-0.28085 9.58224,-7.96915 c 10.517837,-8.74725 10.637967,-8.80749 12.103557,-6.06901 l 1.01693,1.90013 -3.73174,3.35039 c -2.05246,1.84271 -5.30674,4.58266 -7.231737,6.08877 l -3.5,2.73839 15.806697,0.0111 15.80671,0.0111 -1.30671,-1.83944 c -0.71868,-1.01171 -8.2817,-10.04932 -16.8067,-20.08359 L 35.456151,22.083775 v -2.0831 c 0,-4.04365 2.35368,-2.75934 9.077907,4.95349 l 6.79741,7.79675 17.56234,0.5 17.56234,0.5 v 2 2 l -14.75,0.27673 c -8.1125,0.15221 -14.75,0.48146 -14.75,0.73167 0,0.25022 5.20075,6.65069 11.55723,14.22327 l 11.55723,13.76833 7.19277,3.70051 c 8.63991,4.44503 8.69277,4.45293 8.69277,1.29949 0,-3.16505 -1.36371,-3.53791 14.412912,3.94074 l 13.58709,6.44074 v 3.45227 3.45227 l 1.58179,0.60699 c 2.92022,1.1206 3.41821,0.62628 3.41821,-3.39301 0,-5.07497 -0.40315,-5.13275 14.99614,2.14924 l 13.00386,6.14924 v 22.350755 22.35076 h 2.5 2.5 l 0.0151,-22.75 0.0151,-22.749995 11.23486,-5.19921 c 6.17917,-2.85956 12.02236,-5.4952 12.98486,-5.85698 l 1.75,-0.65779 v 4.58555 4.58555 l 2.5,-1.13907 2.5,-1.13908 v -3.68574 -3.68574 l 13.07394,-6.15374 c 15.16906,-7.1399 14.70528,-7.04184 15.1127,-3.19535 l 0.31336,2.9584 8.78856,-4.2084 8.78856,-4.2084 12.32698,-14 12.32698,-14 -15.11546,-0.5 -15.11554,-0.5 v -2 -2 l 17.62446,-0.27256 17.62446,-0.27257 6.3564,-7.22743 c 8.36881,-9.51562 9.93177,-10.44856 10.71747,-6.39735 l 0.32279,1.66436 -8.96158,10.25277 c -4.92887,5.63903 -12.83663,14.64933 -17.57279,20.02289 -4.73617,5.37357 -8.61121,9.98607 -8.61121,10.25 0,0.26394 7.08125,0.47989 15.73612,0.47989 h 15.73612 l -6.73612,-6.07959 c -6.71813,-6.06336 -8.05036,-8.47886 -5.26572,-9.54742 l 1.4704,-0.56425 9.22442,8.06796 9.22442,8.06796 13.05518,0.27767 13.05518,0.27767 v 2 2 l -34.44768,0.5 -34.44769,0.5 26.94769,12.77808 c 14.82122,7.02794 27.61459,13.19403 28.42971,13.70242 l 1.48202,0.92433 -5.48202,2.43621 c -3.01512,1.33991 -16.58475,7.632645 -30.15475,13.983865 l -24.67271,11.54767 -29.0717,-13.43629 C 181.81795,94.333165 184.95615,95.441615 184.95615,99.061545 v 2.810615 l 29.67761,13.73396 29.67762,13.73396 18.07238,-8.67223 c 9.93982,-4.76972 19.19739,-8.86831 20.57239,-9.10796 l 2.5,-0.43574 8.48462,4.16251 8.48462,4.1625 -2.48462,1.29369 c -6.96392,3.62599 -54.98384,25.50806 -55.97709,25.50806 -0.63423,0 -13.91261,-5.85 -29.50753,-13 -32.35048,-14.83214 -29.72061,-13.95039 -29.31336,-9.82829 l 0.31336,3.17172 28.25,13.00586 28.25,13.00587 v 61.82242 61.82242 h -0.9408 c -0.51744,0 -4.90494,-1.81431 -9.75,-4.0318 -4.84506,-2.21749 -15.88983,-7.27999 -24.54393,-11.25 l -15.73473,-7.2182 -0.0153,-48.02846 -0.0153,-48.02846 -16.09972,-7.33366 -16.09973,-7.33367 -9.15027,4.22405 c -5.03266,2.32323 -12.21372,5.60215 -15.95792,7.28648 l -6.80764,3.06243 0.2008,8.34915 c 0.11044,4.59204 -0.0444,8.59439 -0.34418,8.89413 -0.29973,0.29973 -10.37665,-3.94975 -22.39315,-9.4433 l -21.848192,-9.98826 -0.32818,2.54161 c -0.4414,3.41846 -1.4767,2.79353 23.012612,13.89093 l 21.68442,9.82637 0.31558,8.88891 c 0.37835,10.65739 0.93092,10.22098 -7.68443,6.06914 -3.85,-1.85536 -13.75,-6.47711 -22.000002,-10.27055 l -15,-6.89716 -0.33466,2.01049 c -0.18407,1.10578 0.0409,2.38038 0.5,2.83246 0.79335,0.78128 33.811392,16.44841 40.954402,19.43295 l 3.38026,1.41237 v 16.51549 16.51549 l -4.25,-1.85345 c -2.3375,-1.0194 -11.56282,-5.24818 -20.5007,-9.3973 -8.937892,-4.14912 -17.150392,-7.8294 -18.250002,-8.1784 l -1.9993,-0.63456 v 2.39147 2.39146 l 22.500002,10.30766 22.5,10.30767 v 5.25026 5.25026 l -23.25,10.72364 c -12.787502,5.898 -23.753362,10.92655 -24.368582,11.17456 -0.61522,0.248 -1.39657,-0.58704 -1.73634,-1.85564 z m 6.52618,-181.461545 c 2.24254,-2.02947 2.31759,-3.71331 0.25731,-5.77358 l -1.57143,-1.57143 h -4.49431 c -4.9708,0 -7.81936,1.14135 -8.7225,3.4949 l -0.59497,1.55046 1.97732,1.97732 1.97732,1.97732 h 4.67126 4.67126 z m 163.806062,-0.32233 1.97732,-1.97732 -0.59497,-1.55046 c -0.89052,-2.32066 -3.73471,-3.4949 -8.46519,-3.4949 h -4.237 l -1.82874,1.65499 c -2.4232,2.19297 -2.30732,3.89639 0.39377,5.78831 l 2.2225,1.5567 h 4.2775 4.27749 z m 41.27268,160.953595 -10.25,-4.84001 v -12.50074 -12.50075 l 2.25,-0.70079 c 1.2375,-0.38544 5.80416,-2.4491 10.14814,-4.58591 4.34398,-2.13682 8.06544,-3.71783 8.26991,-3.51336 0.20448,0.20447 0.25031,10.07147 0.10186,21.92667 l -0.26991,21.5549 z M 17.956151,236.30993 c 0,-11.51754 0.3375,-21.12733 0.75,-21.35509 0.4125,-0.22776 5.3625,1.80358 11,4.5141 l 10.25,4.92821 v 11.79093 11.79093 l -9.58913,4.63595 c -5.27402,2.54977 -10.22402,4.63595 -11,4.63595 h -1.41087 z m 26.999997,-40.05102 v -56.94249 l 9.75,4.55709 c 5.3625,2.5064 10.7625,4.95552 12,5.4425 l 2.25,0.8854 v 46.08275 46.08274 l -9.75,4.5441 c -5.3625,2.49925 -10.7625,4.93701 -12,5.41725 l -2.25,0.87316 z m 216.000002,51.9706 -10.5,-4.90152 -0.25986,-46.49799 -0.25986,-46.49798 11.6561,-5.54056 c 6.41086,-3.0473 11.8153,-5.54055 12.00986,-5.54055 0.19457,0 0.35376,25.65 0.35376,57 v 57 l -1.25,-0.0599 c -0.6875,-0.033 -5.975,-2.26563 -11.75,-4.96147 z m -116.20342,-3.80644 -9.70341,-4.6384 -0.29659,-15.51688 c -0.16312,-8.53428 -0.0404,-15.86309 0.27277,-16.28623 0.31314,-0.42314 5.37564,1.48066 11.25,4.23066 l 10.68065,5.00001 v 16.01934 16.01934 l -1.25,-0.0947 c -0.6875,-0.0521 -5.61654,-2.182 -10.95342,-4.73311 z m 16.20342,-11.15405 v -16.14855 l 10.54131,-4.93478 c 5.79773,-2.71413 10.74773,-4.93478 11,-4.93478 0.25228,0 0.45869,7.32357 0.45869,16.2746 v 16.27459 l -10.10439,4.47541 c -5.55741,2.46147 -10.50741,4.6254 -11,4.80873 l -0.89561,0.33334 z m -154.2499991,2.81961 -2.75,-1.00439 V 193.86062 152.637 l 3.45655,-8.44304 3.4565501,-8.44305 0.0435,50.75 c 0.0239,27.9125 -0.29405,50.71447 -0.70655,50.67105 -0.4125001,-0.0434 -1.9875001,-0.53092 -3.5000001,-1.08333 z M 306.95615,186.75091 c 0,-27.775 0.17777,-50.5 0.39505,-50.5 0.21728,0 2.01728,4.05311 4,9.0069 l 3.60495,9.0069 v 40.39528 40.39527 l -3.14922,1.09782 c -1.73208,0.60381 -3.53208,1.09783 -4,1.09783 h -0.85078 z m -278.999999,26.95279 -9.5,-4.36904 -0.27307,-17.54188 c -0.1502,-9.64803 0.0748,-17.54832 0.5,-17.5562 0.42519,-0.008 5.3758,2.12963 11.00137,4.75 l 10.22829,4.76433 0.02171,17.25 0.0217,17.25 -1.25,-0.0891 c -0.6875,-0.049 -5.525,-2.05516 -10.75,-4.45813 z m 251.226929,-12.99107 0.27307,-17.53829 9.5,-4.42128 c 5.225,-2.4317 9.84788,-4.43947 10.27307,-4.46171 0.4252,-0.0222 0.6502,7.88953 0.5,17.58172 l -0.27307,17.62216 -9.88041,4.37784 c -5.43423,2.40781 -10.05711,4.37784 -10.27308,4.37784 -0.21596,0 -0.26978,-7.89223 -0.11958,-17.53828 z m -134.38879,5.77213 -9.66185,-4.59002 -0.38097,-15.07192 c -0.20954,-8.28955 -0.12918,-15.39443 0.17857,-15.78863 0.30775,-0.39419 5.27702,1.485 11.04283,4.17599 l 10.48328,4.89271 0.27539,15.57401 0.2754,15.57401 -1.2754,-0.0881 c -0.70146,-0.0484 -5.62323,-2.15358 -10.93725,-4.67809 z m 16.16186,-10.65671 v -15.42287 l 10.62853,-5.07713 c 5.84569,-2.79243 10.80684,-5.07714 11.02477,-5.07714 0.21793,0 0.2726,7.20531 0.12147,16.01181 l -0.27477,16.0118 -9.96815,4.4882 c -5.48249,2.4685 -10.31999,4.48819 -10.75,4.48819 -0.43002,0 -0.78185,-6.94029 -0.78185,-15.42286 z m -132.749999,-22.60292 -10.25,-4.87106 v -18.55158 c 0,-10.20337 0.3375,-18.55679 0.75,-18.56316 0.4125,-0.006 5.3625,2.09219 11,4.66346 l 10.25,4.67503 v 18.83654 c 0,10.3601 -0.3375,18.80174 -0.75,18.75919 -0.4125,-0.0426 -5.3625,-2.26934 -11,-4.94842 z m 250.978709,-14.23204 0.27129,-19.08698 10.25,-4.77602 10.25,-4.77602 -10e-4,19.19842 -10e-4,19.19842 -10.51988,4.66458 -10.51989,4.66458 z m -131.89587,7.94388 c -6.14194,-2.85233 -11.43845,-5.45757 -11.77002,-5.78942 -0.75582,-0.75643 22.42285,-11.5125 23.87373,-11.07861 4.47389,1.33791 23.47179,10.6549 22.84973,11.206 -0.84565,0.74919 -22.92734,11.01843 -23.46385,10.91203 -0.17734,-0.0352 -5.34765,-2.39767 -11.48959,-5.25 z m -2.33284,-84.212845 c -6.325,-2.95933 -17.12388,-7.98894 -23.99751,-11.17691 -6.87364,-3.18796 -15.42364,-7.18417 -19,-8.88046 l -6.502492,-3.08417 9.000002,-4.22704 9,-4.22704 2,0.44956 c 1.1,0.24725 11.27018,4.81517 22.6004,10.15093 l 20.6004,9.70139 21.46175,-10.08974 c 11.80396,-5.54935 21.98812,-10.08973 22.63146,-10.08973 1.55456,0 18.6379,7.91164 18.11418,8.38904 -0.54016,0.49239 -51.17533,24.36656 -56.7411,26.75308 -5.84939,2.50813 -6.0448,2.47072 -19.16709,-3.66891 z m -19.3419,-32.92633 -32.841902,-15.37814 1.8419,-0.9816 c 1.01304,-0.53988 10.391902,-5.02967 20.841902,-9.97732 10.45,-4.94765 24.28359,-11.5189 30.74131,-14.60277 6.45772,-3.08388 12.08272,-5.61346 12.5,-5.6213 1.17988,-0.0221 65.25829,30.4505 65.21727,31.01425 -0.0273,0.37536 -61.7064,29.57882 -64.86627,30.71251 -0.32577,0.11688 -15.37117,-6.70766 -33.43421,-15.16563 z"
       id="path1" />
  </g>
</svg>
