<?xml version="1.0" encoding="UTF-8" standalone="no"?>
<!-- Created with Inkscape (http://www.inkscape.org/) -->

<svg
   version="1.1"
   id="svg1"
   width="533.33331"
   height="442.66666"
   viewBox="0 0 533.33331 442.66666"
   xmlns="http://www.w3.org/2000/svg"
   xmlns:svg="http://www.w3.org/2000/svg">
  <defs
     id="defs1" />
  <g
     id="g1">
    <path
       style="fill:#000000"
       d="m 224.40112,393.75789 -16.66666,-7.80591 -27.45091,-13.31508 -27.45091,-13.31508 -2.21576,-3.16344 -2.21576,-3.16343 V 226.85738 100.71981 l 3.01465,-2.832109 3.01464,-2.832107 52.65202,-25.557598 52.65202,-25.557597 24.66667,-12.01653 24.66667,-12.016529 6.66666,-0.630263 6.66667,-0.630262 53.64163,26.779043 53.64163,26.779043 2.6917,2.691702 2.6917,2.691703 V 201.95829 326.32828 l -2.16303,3.08816 -2.16302,3.08815 -14.17031,6.66714 -14.1703,6.66714 -20.54852,9.31399 -20.54851,9.31399 -8.10147,-0.94028 -8.10146,-0.94027 23.73611,-11.88274 23.7361,-11.88273 -0.41946,-2.9496 -0.41946,-2.9496 -5.0344,-0.41587 -5.0344,-0.41587 -58.29893,27.60112 -58.29893,27.60111 -9.66667,4.58551 -9.66667,4.5855 v 2.56258 2.56259 l -2.33333,-0.0122 -2.33333,-0.0123 z m 93.30243,-45.07273 58.0309,-27.56981 1.66667,-1.26012 1.66666,-1.26012 v -1.7063 -1.70631 l -3.96267,-1.3814 -3.96268,-1.38139 -3.70399,1.10144 -3.70399,1.10144 -56.66666,26.8703 -56.66667,26.8703 -1.84899,1.8425 -1.84899,1.8425 0.80714,2.10339 0.80715,2.10338 h 5.67761 5.67761 z m 3.15366,-27.39911 59.46914,-28.24639 0.77662,-2.02384 0.77661,-2.02384 -2.4059,-1.79503 -2.4059,-1.79503 -4.66666,0.73399 -4.66667,0.73398 -58.64746,27.89247 -58.64747,27.89247 -1.35253,2.21149 -1.35254,2.2115 2.66667,1.99629 2.66667,1.9963 4.16014,-0.76898 4.16014,-0.76898 z m -25.63954,-14.05352 31.18345,-14.78246 21.0945,-10.08406 21.0945,-10.08406 -0.42783,-2.98012 -0.42784,-2.98011 -3.33333,-1.75227 -3.33334,-1.75228 -4.74156,0.55736 -4.74156,0.55736 -50.35636,23.71333 -50.35635,23.71334 -3.17475,2.49725 -3.17474,2.49726 0.79146,2.06252 0.79147,2.06252 2.81453,1.20973 2.81453,1.20973 6.14989,-0.44129 6.14989,-0.44128 z m 21.18548,-41.11478 57.99797,-27.47055 1.66666,-1.35937 1.66667,-1.35938 v -1.86533 -1.86532 l -3.27567,-1.4925 -3.27568,-1.4925 -6.63597,2.52109 -6.63598,2.52108 -54.89779,25.92969 -54.8978,25.9297 -0.67305,1.75395 -0.67306,1.75395 1.64576,1.98302 1.64576,1.98302 h 4.17211 4.17211 z m -42.80267,-5.70169 14.13397,-6.50557 48.66667,-22.97584 48.66666,-22.97583 2.43386,-2.32283 2.43387,-2.32282 -2.3393,-2.3393 -2.3393,-2.3393 -4.76123,0.69092 -4.76123,0.69091 -53.33333,25.26727 -53.33333,25.26726 -10.33334,4.76526 -10.33333,4.76526 v 1.82009 1.82009 l 1.6,1.6 1.6,1.6 h 3.93269 3.93269 z m 45.74781,-47.59481 52.38616,-24.9052 2.39644,-2.0943 2.39645,-2.09431 -0.39645,-3.27104 -0.39644,-3.27104 -3.76444,-2.79853 -3.76444,-2.79853 h -6.90223 -6.90222 l -40,18.88067 -40,18.88068 -14.18597,6.8515 -14.18598,6.85151 -2.43647,2.69227 -2.43647,2.69227 2.00078,3.57555 2.00077,3.57555 4.62167,1.6671 4.62167,1.66709 6.28051,-0.59802 6.28051,-0.59802 z m -125.8805,-6.16628 1.6,-1.6 v -19.15432 -19.15432 l -1.20349,-2.24875 -1.20349,-2.24874 -10.84976,-5.28986 -10.84976,-5.28986 -2.28008,1.43618 -2.28009,1.43618 -0.37005,19.71118 -0.37005,19.71118 2.37005,2.66512 2.37005,2.66511 9.29572,4.48045 9.29572,4.48045 h 1.43761 1.43762 z m 99.52457,-20.16701 34.59124,-16.23299 24.07542,-11.44607 24.07543,-11.44608 v -3.22059 -3.22059 l -5.0344,-0.41587 -5.0344,-0.41588 -58.29893,27.57259 -58.29893,27.57258 -1.66667,1.33988 -1.66667,1.33988 v 1.87971 1.8797 l 3,1.173 3,1.17299 3.33334,-0.64964 3.33333,-0.64963 z m 24.07543,-36.81538 53.33333,-25.5837 10,-4.91695 10,-4.91696 0.46452,-2.5069 0.46452,-2.50689 -1.79785,-1.13936 -1.79786,-1.13935 -3.27497,-0.0204 -3.27496,-0.0204 -53.3917,25.56183 -53.3917,25.56183 -12.33333,5.72783 -12.33334,5.72783 v 2.48812 2.48811 l 1,1.01761 1,1.01761 6,-0.62806 6,-0.62807 z m -24.74271,-54.842618 50.07604,-24.055426 1.84899,-1.82306 1.84899,-1.823059 -0.80714,-2.103389 -0.80715,-2.103388 -5.70851,0.08198 -5.70852,0.08198 -51.98662,24.943374 -51.98662,24.943366 -0.4457,2.31433 -0.44569,2.31433 3.09898,1.29293 3.09899,1.29293 3.92396,-0.65074 3.92396,-0.65073 z m -33.25729,-10.297573 52.66666,-25.309106 0.46453,-2.324385 0.46452,-2.324385 -1.79786,-1.139353 -1.79785,-1.139353 -3.6504,-0.02042 -3.65039,-0.02042 -26.3496,12.509262 -26.34961,12.509261 -26,12.287928 -26,12.287922 -2.66667,2.61304 -2.66666,2.61304 2.66666,2.02466 2.66667,2.02466 4.66667,-0.64163 4.66666,-0.64163 z M 115.30021,189.16903 112.40113,186.0831 v -4.2474 -4.2474 l 2.66666,-2.66666 2.66667,-2.66667 h 4.56989 4.5699 l 2.76344,3.51314 2.76344,3.51315 v 2.97371 2.97371 l -2.76344,3.51314 -2.76344,3.51315 h -4.33748 -4.33747 z m -0.23242,-51.58073 -2.66666,-2.66666 v -4.5699 -4.56989 l 3.51314,-2.76344 3.51315,-2.76344 h 2.4125 2.4125 l 3.62991,3.12232 3.62991,3.12231 v 4.19381 4.19381 l -2.42888,2.68388 -2.42887,2.68387 h -4.46001 -4.46002 z"
       id="path1" />
  </g>
</svg>
