<?xml version="1.0" encoding="UTF-8" standalone="no"?>
<!-- Created with Inkscape (http://www.inkscape.org/) -->

<svg
   version="1.1"
   id="svg1"
   width="477.33334"
   height="390.66666"
   viewBox="0 0 477.33334 390.66666"
   xmlns="http://www.w3.org/2000/svg"
   xmlns:svg="http://www.w3.org/2000/svg">
  <defs
     id="defs1" />
  <g
     id="g1">
    <path
       style="fill:#000000"
       d="m 241.07744,375.40358 c -0.4895,-0.4895 -5.28217,-1.28218 -10.65038,-1.7615 l -9.76039,-0.87149 -0.40887,-4.91699 -0.40887,-4.91699 -13.59113,-8.28764 c -7.47512,-4.5582 -13.8248,-8.47922 -14.11039,-8.71338 -0.2856,-0.23417 1.11985,-2.57476 3.12323,-5.20131 l 3.64249,-4.77556 3.26892,2.14188 c 1.79791,1.17803 6.24246,3.89513 9.87677,6.038 l 6.60785,3.89613 v -5.20924 -5.20925 l -11.43251,-6.90556 c -12.84265,-7.75733 -13.82001,-9.06311 -10.3497,-13.82754 3.18224,-4.36892 3.64924,-4.31848 12.90369,1.39369 l 7.84074,4.83958 1.16514,-1.83958 c 0.64083,-1.01176 1.17433,-3.05154 1.18556,-4.53283 l 0.0204,-2.69325 -9,-5.49099 c -4.95,-3.02004 -10.95,-6.47348 -13.33333,-7.67432 -5.26189,-2.65118 -5.29671,-3.09429 -0.66667,-8.48329 l 3.66667,-4.26771 9.9631,6.1452 c 5.4797,3.37986 9.26402,5.30287 8.4096,4.27336 l -1.55349,-1.87185 1.23664,-1.95528 c 2.04364,-3.23123 1.73788,-3.52721 -11.05585,-10.70228 -6.78333,-3.80427 -12.60702,-7.16618 -12.94152,-7.4709 -1.21089,-1.10307 4.41184,-9.7821 6.33735,-9.7821 1.08675,0 4.81902,1.74938 8.29393,3.88752 l 6.31803,3.88752 1.33835,-2.93734 1.33834,-2.93735 -8.00062,-4.61684 c -9.93327,-5.7321 -18.90186,-15.47851 -23.87922,-25.95018 l -3.80254,-8 -0.001,-18.33333 -10e-4,-18.33333 h -4 -4 v 22.41886 22.41886 l 6.01238,4.50489 6.01238,4.50489 -4.27393,4.40958 c -5.3594,5.52949 -4.83053,5.60481 -12.9415,-1.84307 l -6.80933,-6.25265 v -25.08068 -25.08068 h -6 -6 v 24 24 H 145.33334 140 v -11.79517 c 0,-6.48734 -0.38984,-17.28734 -0.86632,-24 l -0.86632,-12.20483 h -5.80035 -5.80034 v 27.33333 27.33333 H 121.33334 116 V 220.70091 193.2979 l -7,0.40301 -7,0.40301 v 28 28 l -5.666665,0.41 -5.666666,0.41 V 222.18059 193.43726 H 76.000004 61.333334 v -4.66667 -4.66667 h 14.66667 14.666665 v -27.01136 -27.01135 l 29.154071,-29.13149 29.15408,-29.131481 2.62225,1.403387 c 1.44224,0.771862 3.42872,2.375124 4.41441,3.562805 l 1.79216,2.159418 -28.23515,28.258081 -28.23515,28.25808 0.009,15.32195 c 0.005,8.42708 0.39471,19.40119 0.86554,24.3869 l 0.85606,9.06493 6.13446,-0.39827 6.13447,-0.39826 0.37317,-17 0.37316,-17 h 5.2935 5.2935 v 17.33333 17.33333 h 5.85735 5.85735 l 0.87851,-2.28937 c 0.48319,-1.25916 0.77139,-8.52888 0.64046,-16.15495 l -0.23806,-13.86557 11.49181,-11.4918 11.4918,-11.4918 3.64522,3.64521 3.64521,3.64522 -9.63482,9.69955 -9.63483,9.69956 v 14.30198 14.30197 h 6 6 v -16.66666 -16.66667 h 6 6 v 16.66667 16.66666 h 3.89411 3.8941 l 0.43923,-24.36861 0.43923,-24.3686 4.35599,-8.84103 4.35599,-8.84104 7.18733,-7.30308 7.18732,-7.30308 9.55008,-4.777712 c 5.25255,-2.62774 11.58792,-5.16001 14.0786,-5.62726 l 4.52851,-0.84956 -1.95524,-1.95524 c -1.07539,-1.07539 -1.95525,-3.152824 -1.95525,-4.616528 v -2.661278 l -2.64642,0.839942 c -1.45554,0.461969 -8.13207,3.866266 -14.83675,7.565104 l -12.19033,6.72516 -3.11213,-3.80858 c -4.23477,-5.18248 -4.1323,-5.31385 10.5322,-13.503121 l 12.9201,-7.215126 v -5.878506 c 0,-7.06014 0.38186,-7.011499 -9.51375,-1.211839 -9.67248,5.668884 -9.59328,5.665723 -13.25109,0.528805 l -2.94641,-4.137861 1.85562,-1.223754 c 1.0206,-0.673065 6.80167,-4.061027 12.84683,-7.528805 l 10.9912,-6.305051 0.009,-6.442079 0.009,-6.442079 -4.66667,2.775412 c -2.56667,1.526477 -6.85875,4.081258 -9.53796,5.677292 l -4.87129,2.901879 -3.12165,-3.901879 c -4.41004,-5.512297 -4.79372,-5.161994 22.01262,-20.097327 l 24.28182,-13.5287803 24.2849,13.3538303 c 13.35669,7.344608 24.79623,13.823894 25.4212,14.398415 l 1.1363,1.044584 -3.05371,4.130366 c -3.83045,5.18095 -3.62157,5.198404 -14.39668,-1.202967 -11.09088,-6.588972 -10.82221,-6.604364 -10.82221,0.619996 v 5.95333 l 12.33333,6.703407 c 6.78333,3.686873 13.19113,7.259908 14.23955,7.940078 l 1.90622,1.236671 -3.60772,4.729963 -3.60771,4.729963 -10.07534,-5.956705 C 266.83521,58.757314 266.6666,58.753915 266.6666,65.808284 v 5.704347 l 13.66667,7.167514 c 7.51667,3.942133 14.40105,7.735683 15.29863,8.430112 l 1.63197,1.262601 -3.42793,4.49424 -3.42793,4.49425 -15.77691,-8.29538 -15.77691,-8.295366 -1.28666,1.333334 c -0.70766,0.733333 -1.66553,3.13762 -2.12861,5.34286 l -0.84196,4.009532 7.03482,1.65596 c 3.86915,0.91078 10.6983,3.4515 15.17589,5.64604 l 8.14107,3.990072 6.76734,6.66144 6.76735,6.66144 4.09947,8.34966 4.09948,8.34966 0.0888,50.97524 0.0888,50.97525 -3.76336,6.96749 c -4.61492,8.54408 -15.83853,19.85056 -23.44033,23.61339 l -5.65635,2.79985 2.47598,0.001 2.47599,10e-4 -0.77022,2.00715 -0.77022,2.00715 5.53821,-2.82538 5.53821,-2.82538 3.67356,4.4849 c 4.31913,5.27305 4.98113,4.42298 -10.16151,13.04837 l -12,6.83531 0.46299,3.63394 c 0.66131,5.19043 0.53365,5.2006 10.72603,-0.85458 11.08314,-6.58437 10.86589,-6.56234 14.62127,-1.48291 3.8194,5.16602 4.06177,4.89056 -12.42584,14.12291 l -14.01628,7.84852 -0.0174,4.33333 c -0.0216,5.37026 -0.13829,5.37608 10.4032,-0.51905 l 8.67688,-4.85239 1.88228,2.51906 c 1.03526,1.38548 2.45702,3.56454 3.15947,4.84237 l 1.27718,2.32331 -7.04155,4.49129 c -3.87285,2.4702 -9.59155,5.7869 -12.70821,7.37045 l -5.66667,2.87916 v 5.30624 c 0,6.49397 -0.74278,6.53693 10.96672,-0.63426 l 9.69995,-5.94049 2.37126,2.94049 c 1.3042,1.61727 2.98007,3.99939 3.72417,5.29361 l 1.3529,2.35311 -2.39083,0.89312 c -1.31496,0.49121 -7.64084,4.14282 -14.0575,8.11469 l -11.66667,7.22158 v 3.70227 c 0,5.1023 -1.97614,6.27493 -12,7.12073 -4.76667,0.40221 -10.174,1.11373 -12.01628,1.58116 -1.84229,0.46743 -3.75012,0.44938 -4.23962,-0.0401 z m 10.7292,-122.533 c 2.02081,-1.045 4.39102,-3.47323 5.26712,-5.39607 l 1.59291,-3.49606 v -18.35319 -18.35318 l 3.84486,-2.84262 c 2.11467,-1.56345 5.18723,-5.6156 6.82791,-9.0048 l 2.98305,-6.16217 -0.64119,-6.67304 -0.6412,-6.67304 -3.90884,-5.5616 C 262.72029,164.07876 255.3913,159.4405 248.02388,158.2624 l -4.97363,-0.79532 -6.54838,1.94466 -6.54838,1.94466 -4.89736,5.04043 c -10.92865,11.24792 -10.56275,28.13579 0.80614,37.20705 l 4.80432,3.83338 4e-5,19.76923 4e-5,19.76923 3.89744,3.89743 3.89743,3.89744 h 4.83545 c 2.65949,0 6.48883,-0.855 8.50965,-1.90001 z m -123.19611,60.05707 -29.277195,-28.5096 3.232415,-3.4904 c 4.67311,-5.04606 3.58292,-5.81204 34.67347,24.36224 l 28.57255,27.73049 -2.99668,4.20843 c -4.06584,5.70995 -1.54963,7.49763 -34.20456,-24.30116 z m 201.40114,24.52178 -3.89891,-4.06959 11.94362,-12.06841 c 6.569,-6.63763 19.62877,-19.32594 29.02171,-28.19624 l 17.07809,-16.12782 3.57151,3.57151 3.57152,3.57151 -28.69431,28.69431 -28.69432,28.69432 z M 139.80663,289.44198 122,272.11338 l 4,-3.33144 c 5.15336,-4.29202 2.75744,-5.71833 23.33334,13.89051 l 18,17.154 -3.23242,3.47207 c -4.74246,5.09406 -4.93205,4.98592 -24.29429,-13.85654 z m 188.18949,13.99114 -3.21972,-3.42723 18.76238,-18.76237 18.76237,-18.76238 2.81887,1.50862 c 1.55038,0.82974 3.42385,2.63903 4.16328,4.02065 l 1.3444,2.51204 -18.05157,17.79074 c -20.21292,19.92085 -20.12221,19.86504 -24.58001,15.11993 z m -13.82357,-25.81577 -3.6597,-3.8199 14.22909,-13.00228 14.22908,-13.00228 3.99022,3.99022 3.99022,3.99021 -10.51419,10.0748 c -17.98579,17.23415 -17.35065,16.89841 -22.26472,11.76923 z m -157.2312,-9.09836 c -14.69057,-13.86506 -13.8916,-12.33909 -8.94284,-17.08031 l 4.0409,-3.87142 6.98029,6.71705 c 3.83917,3.69438 9.84018,9.32199 13.33558,12.50581 l 6.35527,5.78875 -3.60473,3.76253 c -4.84283,5.05483 -4.2501,5.31008 -18.16447,-7.82241 z m 151.70459,-15.10337 -3.85297,-4.02164 7.60352,-7.68369 7.60352,-7.68369 v -20.29467 -20.29467 h -5.33334 -5.33333 v -4.66667 -4.66667 h 5.33333 5.33334 v -14.66666 -14.66667 h 6 6 v 14.73972 14.73972 l 6.33333,-0.40638 6.33333,-0.40639 0.38163,-13.81567 0.38162,-13.81568 -10.1292,-9.52402 -10.12919,-9.52402 4.10878,-3.93646 4.10879,-3.93647 11.30545,11.24673 11.30546,11.24672 v 16.36276 16.36277 h 6.66666 6.66667 v -17.33333 -17.33333 h 5.33333 5.33334 v 17.33333 17.33333 h 7.33333 7.33334 V 159.97381 135.8437 l -29.30394,-28.64736 -29.30394,-28.647367 3.93329,-3.309651 3.9333,-3.30965 1.92755,1.087132 c 1.06015,0.597922 14.87694,13.87965 30.70397,29.514956 l 28.77643,28.42781 v 26.57217 26.57218 h 14 14 v 4.66667 4.66667 h -14 -14 v 28 28 h -5.33333 -5.33333 v -28 -28 h -7.33334 -7.33333 v 26 26 h -5.33334 -5.33333 v -26 -26 h -6.66667 -6.66666 v 24 24 h -5.30257 -5.30257 l -0.3641,-23.66667 -0.3641,-23.66667 -6.33333,-0.40638 -6.33333,-0.40639 v 23.23947 23.23946 l -8.74709,8.83359 c -10.12306,10.22316 -9.59072,10.0478 -14.60698,4.81195 z m -184.07712,-113.45787 -3.90215,-4.11703 17.16571,-16.53506 c 19.15365,-18.44995 18.07724,-17.83756 22.89153,-13.02327 l 3.51178,3.51178 -2.45117,2.25416 c -1.34815,1.23979 -9.39521,8.95292 -17.88236,17.1403 l -15.43119,14.88613 z m 224.1699,-13.31191 -18.19119,-17.70481 3.98679,-3.98679 3.9868,-3.9868 17.73944,17.14066 c 20.86293,20.1587 19.39275,17.885 14.55893,22.5161 l -3.88957,3.72643 z M 95.623926,95.121798 91.95997,91.457848 118.97999,65.225369 146,38.992895 l 2.59314,1.669331 c 1.42623,0.918132 3.17317,2.588857 3.88208,3.712723 l 1.28894,2.043392 -26.35544,25.842797 c -30.500202,29.906932 -27.1489,27.49656 -31.784794,22.86066 z M 365.33334,72.168663 338.00001,45.680691 l 3.27458,-3.499929 c 4.56299,-4.876995 3.53161,-5.606832 33.13924,23.450306 l 26.69005,26.1938 -3.6249,3.47287 c -1.99369,1.91007 -3.89206,3.44722 -4.2186,3.41588 -0.32654,-0.0313 -12.89371,-11.97657 -27.92704,-26.544955 z"
       id="path1" />
  </g>
</svg>
