<?xml version="1.0" encoding="UTF-8" standalone="no"?>
<!-- Created with Inkscape (http://www.inkscape.org/) -->

<svg
   version="1.1"
   id="svg1"
   width="258.66666"
   height="446.66666"
   viewBox="0 0 258.66666 446.66666"
   sodipodi:docname="walktietalkie.png"
   xmlns:inkscape="http://www.inkscape.org/namespaces/inkscape"
   xmlns:sodipodi="http://sodipodi.sourceforge.net/DTD/sodipodi-0.dtd"
   xmlns="http://www.w3.org/2000/svg"
   xmlns:svg="http://www.w3.org/2000/svg">
  <defs
     id="defs1" />
  <sodipodi:namedview
     id="namedview1"
     pagecolor="#ffffff"
     bordercolor="#000000"
     borderopacity="0.25"
     inkscape:showpageshadow="2"
     inkscape:pageopacity="0.0"
     inkscape:pagecheckerboard="0"
     inkscape:deskcolor="#d1d1d1"
     showgrid="false" />
  <g
     inkscape:groupmode="layer"
     inkscape:label="Image"
     id="g1">
    <path
       style="fill:#000000"
       d="m 81.839216,427.51251 c -20.34104,-0.58071 -26.14827,-1.16963 -29.46874,-2.98846 -4.89608,-2.68189 -12.20136,-10.69347 -13.95391,-15.30303 -0.74079,-1.94842 -1.24401,-59.24528 -1.24401,-141.64216 V 129.2087 l 3.07088,-5.87637 c 1.95628,-3.74351 5.34437,-7.32821 9.33469,-9.87638 5.43412,-3.47018 6.18038,-4.48249 5.63392,-7.64263 -0.34643,-2.00345 0.28904,-12.203449 1.41217,-22.66667 1.12313,-10.46322 2.59189,-24.424037 3.26392,-31.024037 2.52557,-24.803616 4.50949,-37.0346 6.29714,-38.822249 2.29908,-2.299079 10.18991,-2.415626 12.03458,-0.17775 1.50461,1.825323 5.61936,23.979588 5.61936,30.255237 0,5.353567 1.43501,5.82375 6.77727,2.220576 10.414934,-7.024534 14.473034,-8.146038 29.222724,-8.076035 11.60863,0.0551 15.06885,0.572453 20.2574,3.028803 13.54529,6.41257 26.32372,22.14416 30.3835,37.405294 0.92599,3.480864 3.11066,7.145454 5.41651,9.085701 3.91732,3.296206 6.58829,10.071748 6.60182,16.74709 0.006,2.98663 0.60515,3.66667 3.23023,3.66667 5.75937,0 14.87743,4.91433 19.81,10.67693 10.17595,11.88831 9.54624,2.50262 9.99656,148.99725 0.2696,87.70384 -0.0553,132.70861 -0.98305,136.15385 -1.70212,6.32118 -7.58081,13.90201 -15.02779,19.37895 l -5.61057,4.12634 -30.0373,0.88133 c -32.66887,0.95854 -43.66669,0.93735 -82.037304,-0.15809 z M 191.17255,415.08058 c 10.16305,-5.71321 9.46006,3.87625 10.51043,-143.37106 0.67995,-95.31961 0.52934,-133.55314 -0.54266,-137.76167 -1.7457,-6.85342 -4.54135,-10.58901 -10.76338,-14.38222 -4.42125,-2.69537 -6.13947,-2.76651 -66.93727,-2.77137 -68.363214,-0.005 -66.491244,-0.21063 -73.441634,8.04943 l -3.49215,4.15019 v 138.46206 138.46207 l 3.50893,4.17012 c 6.61778,7.86478 6.09602,7.80892 73.824394,7.90378 61.89241,0.0867 62.00926,0.0816 67.33334,-2.91133 z m -132.361384,-7.1837 c -0.9321,-0.37502 -2.5821,-2.39786 -3.66667,-4.49519 -1.70144,-3.29022 -1.97126,-21.88425 -1.96696,-135.5462 0.005,-129.30944 0.054,-131.81321 2.66728,-136.09944 1.46426,-2.40162 4.20108,-4.95162 6.08181,-5.66667 4.45671,-1.69444 117.916984,-1.73936 122.364414,-0.0485 1.81065,0.68841 4.54971,2.60155 6.0868,4.25142 l 2.79471,2.99976 v 134.8495 134.84949 l -3.08594,2.89909 c -3.08227,2.89564 -3.16107,2.89896 -66.33333,2.79382 -34.786064,-0.0579 -64.010024,-0.4121 -64.942114,-0.78713 z m 84.485244,-55.77647 c 25.21597,-12.33703 30.8007,-45.73778 10.99261,-65.74389 -11.6184,-11.73454 -28.69631,-15.4032 -44.34155,-9.52542 -22.206084,8.34265 -32.932824,33.68401 -23.192984,54.79223 5.09418,11.04015 16.852974,21.02823 28.194034,23.94843 7.26718,1.87121 20.8203,0.21156 28.34789,-3.47135 z M 98.098756,335.69763 c -1.32391,-0.2561 -2.17432,-1.16525 -1.88978,-2.02033 0.36741,-1.10414 8.783414,-1.65923 29.040814,-1.91542 28.31824,-0.35812 33.51988,0.022 31.14571,2.27578 -1.17996,1.12015 -53.40057,2.60711 -58.296744,1.65997 z m -5.93459,-20.55188 c 0.43013,-1.29194 8.491484,-1.77374 34.237654,-2.04628 26.71651,-0.28282 33.55879,-0.007 33.11244,1.33333 -0.43013,1.29194 -8.49148,1.77374 -34.23765,2.04629 -26.716514,0.28281 -33.558794,0.007 -33.112444,-1.33334 z m 4.52621,-19.02314 c 0.6497,-1.69309 5.225024,-2 29.815504,-2 24.59048,0 29.1658,0.30691 29.8155,2 0.66845,1.74195 -3.17842,2 -29.8155,2 -26.637074,0 -30.483954,-0.25805 -29.815504,-2 z m 61.548834,-40.93333 c 2.40249,-2.40248 1.92761,-6.13085 -0.97901,-7.68642 -1.56907,-0.83975 -14.91774,-1.38025 -34.08765,-1.38025 -19.16991,0 -32.518584,0.5405 -34.087654,1.38025 -3.21396,1.72005 -3.34918,6.03866 -0.24568,7.84629 3.50718,2.04274 67.344434,1.89569 69.399994,-0.15987 z m 1.03346,-18.99089 c 0.44967,-1.79165 0.4257,-3.89165 -0.0533,-4.66666 -0.57614,-0.93221 -12.75427,-1.40912 -35.98287,-1.40912 -31.320464,0 -35.202644,0.23625 -35.951544,2.18784 -0.46175,1.20331 -0.48551,3.30331 -0.0528,4.66666 0.74072,2.3338 2.84733,2.47883 36.004844,2.47883 h 35.21807 z M 158.45272,221.52 c 0.88368,-1.06477 1.39893,-3.01477 1.145,-4.33334 -0.4308,-2.23695 -2.86827,-2.39738 -36.42517,-2.39738 -33.556904,0 -35.994374,0.16043 -36.425174,2.39738 -1.14335,5.93695 0.78755,6.26928 36.425174,6.26928 27.81022,0 33.95324,-0.33708 35.28017,-1.93594 z m 5.11983,-30.33072 c 2.40697,-2.40698 2.20574,-34.90409 -0.22866,-36.92446 -1.29537,-1.07506 -12.86326,-1.4143 -39.66666,-1.16326 l -37.838014,0.35439 -0.37307,17.8155 c -0.25126,11.99884 0.12853,18.4199 1.16326,19.66667 2.08562,2.51301 74.445084,2.74921 76.943144,0.25116 z m -10.17657,-90.83194 c -0.38113,-6.107246 0.0544,-7.693608 3.10855,-11.323296 3.9824,-4.732809 3.83185,-7.955178 -0.82161,-17.586735 C 143.26611,45.747475 111.83035,39.756574 91.847946,59.281896 l -6.31858,6.17405 1.99657,14.666667 c 1.09811,8.066666 2.06783,17.516666 2.15492,20.999997 l 0.15836,6.33334 31.999994,0.002 32,0.002 z M 74.505886,38.78928 c 0,-7.777777 -0.27351,-8.666666 -2.66667,-8.666666 -2.39316,0 -2.66667,0.888889 -2.66667,8.666666 0,7.777778 0.27351,8.666667 2.66667,8.666667 2.39316,0 2.66667,-0.888889 2.66667,-8.666667 z"
       id="path1" />
  </g>
</svg>
